<svg width="24" height="24" viewBox="0 0 24 24" fill="none" xmlns="http://www.w3.org/2000/svg">
<path d="M12 13.6071C14.219 13.6071 16.0178 11.8083 16.0178 9.58928C16.0178 7.37029 14.219 5.57143 12 5.57143C9.78098 5.57143 7.98212 7.37029 7.98212 9.58928C7.98212 11.8083 9.78098 13.6071 12 13.6071Z" stroke="white" stroke-width="1.5" stroke-linecap="round" stroke-linejoin="round"/>
<path d="M5.13745 19.875C5.85462 18.6978 6.86257 17.7248 8.0644 17.0498C9.26622 16.3747 10.6215 16.0201 12 16.0201C13.3784 16.0201 14.7337 16.3747 15.9355 17.0498C17.1374 17.7248 18.1452 18.6978 18.8625 19.875" stroke="white" stroke-width="1.5" stroke-linecap="round" stroke-linejoin="round"/>
<path d="M12 22.4464C17.7695 22.4464 22.4464 17.7695 22.4464 12C22.4464 6.2306 17.7695 1.55357 12 1.55357C6.23059 1.55357 1.55356 6.2306 1.55356 12C1.55356 17.7695 6.23059 22.4464 12 22.4464Z" stroke="white" stroke-width="1.5" stroke-linecap="round" stroke-linejoin="round"/>
</svg>
