<svg width="153" height="29" viewBox="0 0 153 29" fill="none" xmlns="http://www.w3.org/2000/svg">
<path fill-rule="evenodd" clip-rule="evenodd" d="M19.9718 14.562L22.7825 9.68968L24.1767 7.27206L25.964 4.187L24.1915 1.11679C21.6108 5.58122 19.0671 10.0679 16.4789 14.5546L16.427 14.6584L24.199 28.1184L24.2583 28.022L28.0924 21.3921L32.0006 14.6213L27.2098 6.32281L25.43 9.40787L22.0632 15.2443L23.8356 18.3145L27.2024 12.4781L28.4632 14.651L24.2583 21.9409L23.7837 21.1177L23.005 19.768L21.2326 16.6978L20.3723 15.1998L19.9718 14.562Z" fill="#0A779E"/>
<path fill-rule="evenodd" clip-rule="evenodd" d="M19.9119 1.14666H11.3984H7.80904L1.77241 11.6032L0.0741599 14.5399L0 14.6734L0.0222516 14.7105L1.0679 16.52L1.79467 17.7807L3.0183 19.9017L3.90822 21.4368L4.79814 22.9719L6.04403 25.13L7.81645 28.2002H11.3613H20.0603H22.1961L20.4236 25.13H18.2878H9.58146L4.60534 16.5126H5.22085H6.61506H7.17126H10.7606H11.7914H13.3191H15.4549L14.3648 14.6289L14.9358 13.6426L15.0545 13.4424H12.8148H11.7914H9.88552H5.16154H4.30127L9.63336 4.20946H18.1321H20.3421C20.9279 3.18606 21.5212 2.16266 22.1071 1.13925H19.9119V1.14666Z" fill="#019AD2"/>
<path d="M48.9127 22.2002H40.1347V6.49219H48.9127V8.23019H42.1147V13.1362H48.5167V14.8522H42.1147V20.4622H48.9127V22.2002ZM54.0313 22.2002H52.0953V5.48019H54.0313V22.2002ZM59.7032 10.4082V22.2002H57.7672V10.4082H59.7032ZM58.7572 5.98619C59.0506 5.98619 59.3072 6.08886 59.5272 6.29419C59.7619 6.48486 59.8792 6.79286 59.8792 7.21819C59.8792 7.62886 59.7619 7.93686 59.5272 8.14219C59.3072 8.34753 59.0506 8.4502 58.7572 8.4502C58.4346 8.4502 58.1632 8.34753 57.9432 8.14219C57.7232 7.93686 57.6132 7.62886 57.6132 7.21819C57.6132 6.79286 57.7232 6.48486 57.9432 6.29419C58.1632 6.08886 58.4346 5.98619 58.7572 5.98619ZM67.3771 20.8362C67.6704 20.8362 67.9711 20.8142 68.2791 20.7702C68.5871 20.7115 68.8364 20.6529 69.0271 20.5942V22.0682C68.8218 22.1709 68.5284 22.2515 68.1471 22.3102C67.7658 22.3835 67.3991 22.4202 67.0471 22.4202C66.4311 22.4202 65.8591 22.3175 65.3311 22.1122C64.8178 21.8922 64.3998 21.5182 64.0771 20.9902C63.7544 20.4622 63.5931 19.7215 63.5931 18.7682V11.9042H61.9211V10.9802L63.6151 10.2102L64.3851 7.70219H65.5291V10.4082H68.9391V11.9042H65.5291V18.7242C65.5291 19.4429 65.6978 19.9782 66.0351 20.3302C66.3871 20.6675 66.8344 20.8362 67.3771 20.8362ZM75.9423 10.1882C76.9543 10.1882 77.8196 10.4082 78.5383 10.8482C79.2716 11.2882 79.829 11.9115 80.2103 12.7182C80.6063 13.5102 80.8043 14.4415 80.8043 15.5122V16.6782H72.7303C72.7596 18.0129 73.097 19.0322 73.7423 19.7362C74.4023 20.4255 75.319 20.7702 76.4923 20.7702C77.2403 20.7702 77.9003 20.7042 78.4723 20.5722C79.059 20.4255 79.6603 20.2202 80.2763 19.9562V21.6502C79.675 21.9142 79.081 22.1049 78.4943 22.2222C77.9076 22.3542 77.211 22.4202 76.4043 22.4202C75.2896 22.4202 74.2996 22.1929 73.4343 21.7382C72.5836 21.2835 71.9163 20.6089 71.4323 19.7142C70.963 18.8049 70.7283 17.6975 70.7283 16.3922C70.7283 15.1015 70.941 13.9942 71.3663 13.0702C71.8063 12.1462 72.415 11.4349 73.1923 10.9362C73.9843 10.4375 74.901 10.1882 75.9423 10.1882ZM75.9203 11.7722C74.9963 11.7722 74.263 12.0729 73.7203 12.6742C73.1923 13.2609 72.877 14.0822 72.7743 15.1382H78.7803C78.7803 14.4635 78.6776 13.8769 78.4723 13.3782C78.267 12.8795 77.9516 12.4909 77.5263 12.2122C77.1156 11.9189 76.5803 11.7722 75.9203 11.7722ZM95.3375 13.9062H100.772V21.6062C99.9209 21.8849 99.0629 22.0902 98.1975 22.2222C97.3322 22.3542 96.3495 22.4202 95.2495 22.4202C93.6215 22.4202 92.2502 22.0975 91.1355 21.4522C90.0209 20.7922 89.1702 19.8609 88.5835 18.6582C88.0115 17.4409 87.7255 16.0035 87.7255 14.3462C87.7255 12.7035 88.0482 11.2809 88.6935 10.0782C89.3389 8.87553 90.2629 7.94419 91.4655 7.28419C92.6829 6.60953 94.1495 6.27219 95.8655 6.27219C96.7455 6.27219 97.5742 6.35286 98.3515 6.51419C99.1435 6.67553 99.8769 6.90286 100.552 7.19619L99.8035 8.91219C99.2462 8.66286 98.6155 8.45019 97.9115 8.27419C97.2222 8.09819 96.5035 8.01019 95.7555 8.01019C94.5089 8.01019 93.4382 8.26686 92.5435 8.78019C91.6489 9.29353 90.9669 10.0269 90.4975 10.9802C90.0282 11.9189 89.7935 13.0409 89.7935 14.3462C89.7935 15.5929 89.9915 16.7002 90.3875 17.6682C90.7982 18.6215 91.4362 19.3695 92.3015 19.9122C93.1669 20.4402 94.3035 20.7042 95.7115 20.7042C96.1809 20.7042 96.5915 20.6895 96.9435 20.6602C97.3102 20.6162 97.6402 20.5649 97.9335 20.5062C98.2415 20.4475 98.5275 20.3889 98.7915 20.3302V15.6662H95.3375V13.9062ZM106.195 22.2002H104.259V5.48019H106.195V22.2002ZM120.183 16.2822C120.183 17.2649 120.051 18.1375 119.787 18.9002C119.538 19.6482 119.171 20.2862 118.687 20.8142C118.218 21.3422 117.639 21.7455 116.949 22.0242C116.275 22.2882 115.519 22.4202 114.683 22.4202C113.906 22.4202 113.187 22.2882 112.527 22.0242C111.867 21.7455 111.295 21.3422 110.811 20.8142C110.327 20.2862 109.946 19.6482 109.667 18.9002C109.403 18.1375 109.271 17.2649 109.271 16.2822C109.271 14.9769 109.491 13.8769 109.931 12.9822C110.371 12.0729 111.002 11.3835 111.823 10.9142C112.645 10.4302 113.62 10.1882 114.749 10.1882C115.82 10.1882 116.759 10.4302 117.565 10.9142C118.387 11.3835 119.025 12.0729 119.479 12.9822C119.949 13.8769 120.183 14.9769 120.183 16.2822ZM111.273 16.2822C111.273 17.2062 111.391 18.0129 111.625 18.7022C111.875 19.3769 112.256 19.8975 112.769 20.2642C113.283 20.6309 113.935 20.8142 114.727 20.8142C115.519 20.8142 116.172 20.6309 116.685 20.2642C117.199 19.8975 117.573 19.3769 117.807 18.7022C118.057 18.0129 118.181 17.2062 118.181 16.2822C118.181 15.3435 118.057 14.5442 117.807 13.8842C117.558 13.2242 117.177 12.7182 116.663 12.3662C116.165 11.9995 115.512 11.8162 114.705 11.8162C113.503 11.8162 112.63 12.2122 112.087 13.0042C111.545 13.7962 111.273 14.8889 111.273 16.2822ZM125.188 9.55019C125.188 10.0489 125.173 10.5182 125.144 10.9582C125.129 11.3835 125.107 11.7209 125.078 11.9702H125.188C125.525 11.4715 125.987 11.0535 126.574 10.7162C127.16 10.3789 127.916 10.2102 128.84 10.2102C130.306 10.2102 131.48 10.7235 132.36 11.7502C133.254 12.7622 133.702 14.2802 133.702 16.3042C133.702 17.6535 133.496 18.7829 133.086 19.6922C132.69 20.6015 132.125 21.2835 131.392 21.7382C130.658 22.1929 129.808 22.4202 128.84 22.4202C127.916 22.4202 127.16 22.2515 126.574 21.9142C125.987 21.5769 125.525 21.1735 125.188 20.7042H125.034L124.638 22.2002H123.252V5.48019H125.188V9.55019ZM128.51 11.8162C127.674 11.8162 127.014 11.9775 126.53 12.3002C126.046 12.6082 125.701 13.0922 125.496 13.7522C125.29 14.3975 125.188 15.2262 125.188 16.2382V16.3262C125.188 17.7782 125.422 18.8929 125.892 19.6702C126.376 20.4329 127.263 20.8142 128.554 20.8142C129.61 20.8142 130.394 20.4255 130.908 19.6482C131.436 18.8709 131.7 17.7489 131.7 16.2822C131.7 14.8009 131.436 13.6862 130.908 12.9382C130.394 12.1902 129.595 11.8162 128.51 11.8162ZM141.253 10.2102C142.69 10.2102 143.753 10.5255 144.443 11.1562C145.132 11.7869 145.477 12.7915 145.477 14.1702V22.2002H144.069L143.695 20.5282H143.607C143.269 20.9535 142.917 21.3129 142.551 21.6062C142.199 21.8849 141.788 22.0902 141.319 22.2222C140.864 22.3542 140.307 22.4202 139.647 22.4202C138.943 22.4202 138.305 22.2955 137.733 22.0462C137.175 21.7969 136.735 21.4155 136.413 20.9022C136.09 20.3742 135.929 19.7142 135.929 18.9222C135.929 17.7489 136.391 16.8469 137.315 16.2162C138.239 15.5709 139.661 15.2189 141.583 15.1602L143.585 15.0942V14.3902C143.585 13.4075 143.372 12.7255 142.947 12.3442C142.521 11.9629 141.92 11.7722 141.143 11.7722C140.527 11.7722 139.94 11.8675 139.383 12.0582C138.825 12.2342 138.305 12.4395 137.821 12.6742L137.227 11.2222C137.74 10.9435 138.349 10.7089 139.053 10.5182C139.757 10.3129 140.49 10.2102 141.253 10.2102ZM141.825 16.5022C140.358 16.5609 139.339 16.7955 138.767 17.2062C138.209 17.6169 137.931 18.1962 137.931 18.9442C137.931 19.6042 138.129 20.0882 138.525 20.3962C138.935 20.7042 139.456 20.8582 140.087 20.8582C141.084 20.8582 141.913 20.5869 142.573 20.0442C143.233 19.4869 143.563 18.6362 143.563 17.4922V16.4362L141.825 16.5022ZM151.055 22.2002H149.119V5.48019H151.055V22.2002Z" fill="#242424"/>
</svg>
