<svg width="311" height="168" viewBox="0 0 311 168" fill="none" xmlns="http://www.w3.org/2000/svg">
<path opacity="0.7" d="M155.889 162.646C241.554 162.646 311 157.577 311 151.323C311 145.069 241.554 140 155.889 140C70.2236 140 0.778015 145.069 0.778015 151.323C0.778015 157.577 70.2236 162.646 155.889 162.646Z" fill="#F5F5F5"/>
<path d="M243.132 71.0242L243.885 71.0249L243.875 82.5189L243.121 82.5182L243.132 71.0242Z" fill="#429798"/>
<path d="M243.119 86.7904L243.873 86.791L243.868 92.5873L243.114 92.5866L243.119 86.7904Z" fill="#429798"/>
<path d="M189.082 53.8733L189.679 51.2929C190.524 47.6347 193.783 45.0444 197.537 45.0475L233.217 45.078C237.668 45.0815 241.273 48.6926 241.269 53.1437L241.195 139.972C241.192 143.024 238.716 145.497 235.664 145.494L108.008 145.386C104.956 145.384 102.483 142.907 102.486 139.855L102.549 64.7948C102.552 61.7428 105.028 59.2703 108.08 59.2728L182.208 59.3355C185.492 59.338 188.343 57.0728 189.082 53.8733Z" fill="#429798"/>
<path d="M189.082 53.8733L189.679 51.2929C190.524 47.6347 193.783 45.0444 197.537 45.0475L233.217 45.078C237.668 45.0815 241.273 48.6926 241.269 53.1437L241.195 139.972C241.192 143.024 238.716 145.497 235.664 145.494L108.008 145.386C104.956 145.384 102.483 142.907 102.486 139.855L102.549 64.7948C102.552 61.7428 105.028 59.2703 108.08 59.2728L182.208 59.3355C185.492 59.338 188.343 57.0728 189.082 53.8733Z" fill="black" fill-opacity="0.2"/>
<path d="M181.232 17.0198L221.947 20.3325L217.384 76.426L176.668 73.1132L181.232 17.0198Z" fill="#429798"/>
<path opacity="0.7" d="M181.232 17.0198L221.947 20.3325L217.384 76.426L176.668 73.1132L181.232 17.0198Z" fill="white"/>
<g opacity="0.4">
<path d="M188.085 29.6043L213.166 31.6439C214.382 31.7431 215.448 30.837 215.547 29.6206C215.646 28.4043 214.74 27.3382 213.524 27.2391L188.443 25.1994C187.227 25.1003 186.161 26.0064 186.061 27.2228C185.962 28.4391 186.868 29.5052 188.085 29.6043Z" fill="#429798"/>
<path d="M187.33 38.8787L212.411 40.9183C213.628 41.0175 214.694 40.1114 214.793 38.895C214.892 37.6787 213.986 36.6126 212.77 36.5135L187.689 34.4739C186.472 34.3747 185.406 35.2808 185.307 36.4972C185.209 37.7142 186.114 38.7803 187.33 38.8787Z" fill="#429798"/>
<path d="M186.576 48.1541L211.657 50.1937C212.873 50.2929 213.939 49.3868 214.039 48.1704C214.138 46.9541 213.232 45.888 212.015 45.7888L186.934 43.7493C185.718 43.6501 184.652 44.5562 184.553 45.7726C184.454 46.9888 185.36 48.055 186.576 48.1541Z" fill="#429798"/>
<path d="M185.822 57.4285L210.903 59.4681C212.119 59.5673 213.185 58.6612 213.284 57.4448C213.383 56.2285 212.477 55.1624 211.261 55.0633L186.18 53.0237C184.964 52.9245 183.897 53.8306 183.798 55.047C183.7 56.264 184.605 57.3301 185.822 57.4285Z" fill="#429798"/>
<path d="M191.922 67.262L210.148 68.7441C211.365 68.8432 212.431 67.9371 212.53 66.7208C212.629 65.5044 211.723 64.4383 210.507 64.3392L192.281 62.8571C191.064 62.758 189.998 63.6641 189.899 64.8805C189.801 66.0967 190.706 67.1629 191.922 67.262Z" fill="#429798"/>
</g>
<path d="M123.303 13.0419L164.146 13.8765L162.996 70.1458L122.153 69.3112L123.303 13.0419Z" fill="#429798"/>
<path opacity="0.7" d="M123.303 13.0419L164.146 13.8765L162.996 70.1458L122.153 69.3112L123.303 13.0419Z" fill="white"/>
<g opacity="0.4">
<path d="M130.905 25.1754L156.064 25.6899C157.283 25.7148 158.293 24.7458 158.318 23.5261C158.343 22.3064 157.374 21.297 156.154 21.2721L130.995 20.7576C129.776 20.7328 128.766 21.7017 128.741 22.9214C128.716 24.1419 129.685 25.1507 130.905 25.1754Z" fill="#429798"/>
<path d="M130.715 34.4794L155.873 34.9938C157.093 35.0187 158.103 34.0498 158.127 32.8301C158.152 31.6097 157.183 30.6009 155.964 30.576L130.805 30.0623C129.586 30.0374 128.576 31.0064 128.551 32.2261C128.526 33.445 129.495 34.4545 130.715 34.4794Z" fill="#429798"/>
<path d="M148.751 44.1554L155.683 44.2972C156.903 44.322 157.912 43.3531 157.937 42.1334C157.962 40.913 156.993 39.9042 155.773 39.8793L148.841 39.7376C147.622 39.7127 146.612 40.6817 146.587 41.9014C146.562 43.1218 147.531 44.1306 148.751 44.1554Z" fill="#429798"/>
<path d="M135.308 43.881L142.24 44.0227C143.46 44.0476 144.469 43.0787 144.494 41.859C144.519 40.6393 143.55 39.6298 142.331 39.6049L135.399 39.4632C134.179 39.4383 133.169 40.4073 133.144 41.627C133.12 42.8466 134.089 43.8561 135.308 43.881Z" fill="#429798"/>
<path d="M130.335 53.0875L155.493 53.602C156.713 53.6269 157.723 52.6579 157.747 51.4382C157.772 50.2178 156.803 49.2091 155.584 49.1842L130.425 48.6697C129.205 48.645 128.196 49.6138 128.171 50.8335C128.146 52.0533 129.114 53.062 130.335 53.0875Z" fill="#429798"/>
<path d="M137.02 62.5317L155.303 62.9054C156.523 62.9302 157.532 61.9613 157.557 60.7416C157.582 59.5219 156.613 58.5124 155.393 58.4876L137.111 58.1139C135.891 58.089 134.882 59.058 134.857 60.2777C134.831 61.4974 135.8 62.5069 137.02 62.5317Z" fill="#429798"/>
</g>
<path d="M162.189 16.7233L203.022 15.5522L204.635 71.8067L163.803 72.9777L162.189 16.7233Z" fill="#429798"/>
<path opacity="0.8" d="M162.189 16.7233L203.022 15.5522L204.635 71.8067L163.803 72.9777L162.189 16.7233Z" fill="white"/>
<g opacity="0.4">
<path d="M170.366 28.4762L195.519 27.7551C196.739 27.7203 197.699 26.7032 197.664 25.483C197.63 24.2636 196.613 23.3029 195.392 23.3379L170.239 24.059C169.02 24.0938 168.059 25.1108 168.094 26.3311C168.13 27.5512 169.147 28.511 170.366 28.4762Z" fill="#429798"/>
<path d="M170.633 37.7787L195.786 37.0576C197.006 37.0228 197.966 36.0057 197.932 34.7855C197.897 33.566 196.88 32.6054 195.659 32.6404L170.506 33.3607C169.287 33.3956 168.326 34.4126 168.361 35.6328C168.396 36.853 169.413 37.8136 170.633 37.7787Z" fill="#429798"/>
<path d="M170.899 47.0802L196.053 46.3591C197.272 46.3243 198.233 45.3072 198.198 44.087C198.163 42.8668 197.146 41.9069 195.926 41.9419L170.773 42.663C169.553 42.6978 168.592 43.7148 168.627 44.935C168.662 46.1545 169.68 47.115 170.899 47.0802Z" fill="#429798"/>
<path d="M171.166 56.3825L196.319 55.6613C197.539 55.6264 198.499 54.6095 198.464 53.3893C198.429 52.1698 197.412 51.2092 196.192 51.2441L171.039 51.9652C169.819 52.0001 168.859 53.0171 168.894 54.2373C168.929 55.4567 169.946 56.4173 171.166 56.3825Z" fill="#429798"/>
<path d="M178.307 65.4873L196.585 64.9634C197.805 64.9286 198.765 63.9116 198.73 62.6913C198.696 61.4719 197.679 60.5113 196.458 60.5462L178.18 61.0701C176.96 61.1049 176 62.1219 176.035 63.3421C176.07 64.5615 177.087 65.5221 178.307 65.4873Z" fill="#429798"/>
</g>
<path d="M112.61 19.7247L153.366 16.9751L157.154 73.1244L116.398 75.874L112.61 19.7247Z" fill="#429798"/>
<path opacity="0.8" d="M112.61 19.7247L153.366 16.9751L157.154 73.1244L116.398 75.874L112.61 19.7247Z" fill="white"/>
<g opacity="0.4">
<path d="M121.233 31.1542L146.339 29.4606C147.557 29.3782 148.478 28.3248 148.395 27.1071C148.313 25.8894 147.259 24.9689 146.043 25.0512L120.936 26.7448C119.718 26.8272 118.798 27.8806 118.88 29.0983C118.962 30.3154 120.016 31.2358 121.233 31.1542Z" fill="#429798"/>
<path d="M121.859 40.4394L146.966 38.7458C148.183 38.6634 149.103 37.61 149.022 36.3922C148.939 35.1746 147.886 34.254 146.668 34.3364L121.561 36.03C120.344 36.1124 119.423 37.1659 119.506 38.3836C119.588 39.6005 120.641 40.5211 121.859 40.4394Z" fill="#429798"/>
<path d="M140.674 48.4967L147.592 48.0301C148.81 47.9477 149.73 46.8943 149.648 45.6766C149.566 44.4589 148.512 43.5391 147.295 43.6207L140.377 44.0872C139.159 44.1696 138.239 45.2231 138.321 46.4408C138.403 47.6585 139.456 48.5791 140.674 48.4967Z" fill="#429798"/>
<path d="M127.259 49.4019L134.177 48.9354C135.395 48.853 136.316 47.7996 136.233 46.5819C136.151 45.3642 135.097 44.4444 133.88 44.5261L126.962 44.9926C125.744 45.075 124.823 46.1284 124.906 47.3461C124.988 48.5638 126.041 49.4836 127.259 49.4019Z" fill="#429798"/>
<path d="M123.112 59.0082L148.218 57.3146C149.436 57.2322 150.356 56.1788 150.274 54.9611C150.192 53.7434 149.138 52.8229 147.921 52.9053L122.814 54.5989C121.596 54.6813 120.676 55.7347 120.758 56.9524C120.841 58.1701 121.894 59.0899 123.112 59.0082Z" fill="#429798"/>
<path d="M130.599 67.8303L148.844 66.5996C150.062 66.5172 150.982 65.4638 150.9 64.2461C150.817 63.0284 149.764 62.1079 148.546 62.1903L130.301 63.4209C129.084 63.5033 128.163 64.5568 128.246 65.7744C128.329 66.992 129.382 67.9126 130.599 67.8303Z" fill="#429798"/>
</g>
<path d="M178.025 56.7638L178.389 54.2649C178.904 50.7218 181.931 48.2138 185.685 48.2169L221.365 48.2466C225.816 48.2502 229.745 51.7474 230.142 56.0579L237.88 140.145C238.152 143.101 235.898 145.494 232.846 145.492L105.19 145.384C102.138 145.381 99.4434 142.983 99.1712 140.027L92.4817 67.3375C92.2094 64.3816 94.4636 61.9879 97.5156 61.9903L171.644 62.0531C174.927 62.0556 177.574 59.8619 178.025 56.7638Z" fill="#429798"/>
<path opacity="0.3" d="M178.025 56.7638L178.389 54.2649C178.904 50.7218 181.931 48.2138 185.685 48.2169L221.365 48.2466C225.816 48.2502 229.745 51.7474 230.142 56.0579L237.88 140.145C238.152 143.101 235.898 145.494 232.846 145.492L105.19 145.384C102.138 145.381 99.4434 142.983 99.1712 140.027L92.4817 67.3375C92.2094 64.3816 94.4636 61.9879 97.5156 61.9903L171.644 62.0531C174.927 62.0556 177.574 59.8619 178.025 56.7638Z" fill="#429798"/>
<path d="M45.6567 62.5855L44.9314 62.607C44.787 62.6111 44.675 62.5397 44.6823 62.4486L44.9314 59.3284C44.9388 59.2372 45.0625 59.1586 45.2069 59.1546L45.9322 59.1331C46.0766 59.129 46.1886 59.2003 46.1813 59.2915L45.9321 62.4117C45.9256 62.5035 45.8018 62.5814 45.6567 62.5855Z" fill="#429798"/>
<path d="M44.6367 86.5528L35.0035 40.7829L43.2922 32.7609L70.7668 26.9778L81.6652 78.7594L44.6367 86.5528Z" fill="#429798"/>
<path opacity="0.8" d="M44.6367 86.5528L35.0035 40.7829L43.2922 32.7609L70.7668 26.9778L81.6652 78.7594L44.6367 86.5528Z" fill="white"/>
<path d="M35.0035 40.7832L43.2922 32.7612L41.8751 41.3754L35.0035 40.7832Z" fill="#429798"/>
<path d="M79.3501 87.2253C73.0862 87.9526 67.4188 83.4642 66.6916 77.2004C65.9643 70.9365 70.4527 65.2691 76.7165 64.5419C82.9804 63.8146 88.6478 68.303 89.375 74.5668C90.1022 80.8307 85.614 86.4981 79.3501 87.2253Z" fill="#429798"/>
<path d="M73.246 83.6323C68.9665 80.9907 67.6387 75.3801 70.2803 71.1006C72.9219 66.8212 78.5325 65.4934 82.812 68.135C87.0915 70.7765 88.4192 76.3872 85.7777 80.6666C83.1361 84.9461 77.5255 86.2739 73.246 83.6323Z" fill="white"/>
<path d="M72.3519 75.7376L76.2884 74.8066L75.3565 70.8695L78.1792 70.2021L79.1102 74.1386L83.0473 73.2067L83.7146 76.0286L79.7782 76.9604L80.71 80.8968L77.8882 81.5648L76.9564 77.6284L73.0199 78.5595L72.3519 75.7376Z" fill="#429798"/>
<path opacity="0.4" d="M42.9094 49.5828C43.2641 51.2675 44.9165 52.3455 46.6013 51.9909L66.6413 47.7756C68.3261 47.421 69.404 45.7685 69.0502 44.0844C68.6956 42.3997 67.0432 41.3217 65.3583 41.6756L45.3183 45.8909C43.6335 46.2455 42.5548 47.8981 42.9094 49.5828Z" fill="#429798"/>
<path opacity="0.4" d="M50.7802 57.1414C51.1348 58.8261 52.7873 59.9041 54.4713 59.5496L68.4762 56.6037C70.1602 56.2492 71.2389 54.5967 70.8843 52.9119C70.5297 51.2272 68.8772 50.1492 67.1932 50.5038L53.1883 53.4496C51.5043 53.8041 50.4263 55.4566 50.7802 57.1414Z" fill="#429798"/>
</svg>
