<svg width="36" height="34" viewBox="0 0 36 34" fill="none" xmlns="http://www.w3.org/2000/svg">
<g clip-path="url(#clip0_716_78)">
<path d="M0 23.3115H8.66677V25.9489H6.18045V32.2873H2.56905V25.9489H0V23.3115ZM13.056 26.9381L11.2313 32.2873H7.76311L11.1646 23.3115H14.9311L18.4146 32.2873H14.9038L13.056 26.9381ZM17.5861 23.3115H26.2525V25.9489H23.767V32.2873H20.1557V25.9489H17.5861V23.3115ZM30.6433 26.9381L28.8179 32.2873H25.3497L28.7523 23.3115H32.5177L36 32.2873H32.4904L30.6433 26.9381Z" fill="#486AAE"/>
<path fill-rule="evenodd" clip-rule="evenodd" d="M30.7711 6.82467C30.4475 6.18832 30.0213 5.5784 29.4911 5.00644C28.2997 3.7205 26.6187 2.65044 24.6294 1.91242C22.6237 1.16868 20.336 0.775146 18.0112 0.775146C15.6864 0.775146 13.3988 1.16868 11.3941 1.91242C9.40372 2.65053 7.72264 3.72059 6.53121 5.00644C6.00138 5.57831 5.57381 6.18908 5.25031 6.82578C7.84017 6.19949 12.2703 5.37259 16.3837 5.28517C16.7805 5.27664 17.0537 5.40372 17.2335 5.63171C17.4526 5.90933 17.4362 6.89896 17.4308 7.34171L17.3139 18.7852C17.5455 18.7929 17.7783 18.7978 18.0112 18.7978C18.2461 18.7978 18.4801 18.794 18.7118 18.7863L18.5949 7.34162C18.5888 6.89896 18.5718 5.90924 18.7917 5.63162C18.972 5.40372 19.2443 5.27664 19.641 5.28508C23.7527 5.37182 28.1818 6.19889 30.7711 6.82467Z" fill="#486AAE"/>
<path fill-rule="evenodd" clip-rule="evenodd" d="M31.3241 8.31276C27.5336 7.45584 25.0022 7.29737 22.5045 7.15877C20.3274 7.03774 20.299 7.81517 20.5163 9.30086C20.5306 9.39152 20.548 9.50581 20.5688 9.63614C21.299 13.9614 22.2084 17.6835 22.3647 18.3153C27.6723 17.102 31.5001 13.7382 31.5001 9.78667C31.5001 9.28909 31.44 8.7961 31.3241 8.31276ZM15.5082 9.30086C15.7258 7.81526 15.6979 7.03774 13.521 7.15877C11.0225 7.29737 8.49053 7.45575 4.69857 8.31327C4.58275 8.79662 4.52185 9.289 4.52185 9.78659C4.52185 11.4945 5.21663 13.1471 6.53131 14.5669C7.72274 15.8528 9.40383 16.9229 11.3942 17.6614C12.1145 17.9281 12.8747 18.1467 13.6578 18.3216C13.8048 17.7297 14.735 13.9302 15.4732 9.52756C15.4869 9.44321 15.4995 9.36534 15.5082 9.30086Z" fill="#486AAE"/>
</g>
<defs>
<clipPath id="clip0_716_78">
<rect width="36" height="33.0624" fill="white"/>
</clipPath>
</defs>
</svg>
